<svg width="600" height="600" xmlns="http://www.w3.org/2000/svg">
    <path fill="#D4D4D4" d="M0 0h600v600H0z"/>
    <g fill="#FFF">
        <path d="M80.893903 392h-.0073182c-1.9229318 0-3.4963409-2.269619-3.4963409-5.041813V213.04341905C77.3902439 210.26961889 78.963653 208 80.8865848 208h.0073182c1.9229318 0 3.4963409 2.26961889 3.4963409 5.04341905V386.958187c0 2.772194-1.5734091 5.041813-3.4963409 5.041813M93.3573176 320h-.0073182c-1.9230909 0-3.4963409-2.255166-3.4963409-5.011074v-28.9776242c0-2.7561362 1.57325-5.0113018 3.4963409-5.0113018h.0073182c1.9229318 0 3.4963409 2.2551656 3.4963409 5.0113018v28.9776242c0 2.755908-1.5734091 5.011074-3.4963409 5.011074M105.8208914 320h-.0073182c-1.9230909 0-3.4965-2.255166-3.4965-5.011074v-28.9776242c0-2.7561362 1.5734091-5.0113018 3.4965-5.0113018h.0073182c1.9229318 0 3.4961818 2.2551656 3.4961818 5.0113018v28.9776242c0 2.755908-1.57325 5.011074-3.4961818 5.011074M118.284306 339h-.0074773c-1.9229318 0-3.4963409-2.284085-3.4963409-5.075564v-68.8491028c0-2.7914795 1.5734091-5.0753332 3.4963409-5.0753332h.0074773c1.9227727 0 3.4961818 2.2838537 3.4961818 5.0753332v68.8491028c0 2.791479-1.5734091 5.075564-3.4961818 5.075564M130.7475615 329h-.0073182c-1.9229318 0-3.4963409-2.274441-3.4963409-5.054363v-48.8915035c0-2.7796929 1.5734091-5.0541335 3.4963409-5.0541335h.0073182c1.9230909 0 3.4963409 2.2744406 3.4963409 5.0541335v48.8915035c0 2.779922-1.57325 5.054363-3.4963409 5.054363M143.210817 334h-.007318c-1.922844 0-3.4961819-2.259277-3.4961819-5.020665v-56.9588981c0-2.7611603 1.5733379-5.0204369 3.4961819-5.0204369h.007318c1.923162 0 3.4965 2.2592766 3.4965 5.0204369v56.9588981c0 2.761388-1.573338 5.020665-3.4965 5.020665M155.675504 324h-.007954c-1.923409 0-3.496818-2.266021-3.496818-5.035423v-37.9291537c0-2.7694026 1.573409-5.0354233 3.496818-5.0354233h.007954c1.921819 0 3.495228 2.2660207 3.495228 5.0354233v37.9291537c0 2.769402-1.573409 5.035423-3.495228 5.035423M168.138919 319h-.007954c-1.92341 0-3.496819-2.242203-3.496819-4.983001v-28.0342251c0-2.740571 1.573409-4.9827739 3.496819-4.9827739h.007954c1.921818 0 3.495227 2.2422029 3.495227 4.9827739v28.0342251c0 2.740798-1.573409 4.983001-3.495227 4.983001M180.602334 329h-.007955c-1.923409 0-3.496818-2.274441-3.496818-5.054363v-48.8915035c0-2.7796929 1.573409-5.0541335 3.496818-5.0541335h.007955c1.921818 0 3.495227 2.2744406 3.495227 5.0541335v48.8915035c0 2.779922-1.573409 5.054363-3.495227 5.054363M193.060976 338c-1.92516 0-3.5-2.282587-3.5-5.072467v-65.8552964c0-2.7896494 1.57484-5.0722366 3.5-5.0722366 1.925159 0 3.5 2.2825872 3.5 5.0722366v65.8552964c0 2.78988-1.574841 5.072467-3.5 5.072467M205.527572 349h-.007954c-1.921819 0-3.495228-2.253979-3.495228-5.009577v-87.981758c0-2.754686 1.573409-5.008665 3.495228-5.008665h.007954c1.923409 0 3.496818 2.253979 3.496818 5.008665v87.981758c0 2.755598-1.573409 5.009577-3.496818 5.009577M217.987805 378c-1.925516 0-3.5-2.090608-3.5-4.647318V226.647318c0-2.5560249 1.574484-4.647318 3.5-4.647318 1.923795 0 3.5 2.0912931 3.5 4.647318v146.705364c0 2.55671-1.576205 4.647318-3.5 4.647318M230.45122 389c-1.923967 0-3.5-2.087695-3.5-4.641353V215.6408962c0-2.55251575 1.576033-4.6408962 3.5-4.6408962 1.925688 0 3.5 2.08838045 3.5 4.6408962V384.358647c0 2.553658-1.574312 4.641353-3.5 4.641353M242.914634 384c-1.925516 0-3.5-2.087058-3.5-4.634363V220.6341355c0-2.5488998 1.574484-4.6341355 3.5-4.6341355s3.5 2.0852357 3.5 4.6341355V379.365637c0 2.547305-1.574484 4.634363-3.5 4.634363M255.381231 354h-.006364c-1.923409 0-3.496818-2.272576-3.496818-5.05068v-97.8993289c0-2.7774147 1.573409-5.0499911 3.496818-5.0499911h.006364c1.923409 0 3.496818 2.2725764 3.496818 5.0499911V348.94932c0 2.778104-1.573409 5.05068-3.496818 5.05068M267.844645 340h-.006363c-1.923409 0-3.496819-2.260343-3.496819-5.023314v-69.9533717c0-2.7627429 1.57341-5.0233143 3.496819-5.0233143h.006363c1.923409 0 3.496818 2.2605714 3.496818 5.0233143v69.9533717c0 2.762971-1.573409 5.023314-3.496818 5.023314M280.309651 323h-.007955c-1.923409 0-3.496818-2.27447-3.496818-5.05471v-35.89058c0-2.78001 1.573409-5.05471 3.496818-5.05471h.007955c1.921818 0 3.495227 2.2747 3.495227 5.05471v35.89058c0 2.78024-1.573409 5.05471-3.495227 5.05471M292.773065 328h-.007954c-1.923409 0-3.496818-2.254692-3.496818-5.010756v-46.978488c0-2.755836 1.573409-5.010756 3.496818-5.010756h.007954c1.921819 0 3.495228 2.25492 3.495228 5.010756v46.978488c0 2.756064-1.573409 5.010756-3.495228 5.010756M305.234889 337h-.007954c-1.921819 0-3.495228-2.255928-3.495228-5.013503v-62.9729939c0-2.7573469 1.573409-5.0135031 3.495228-5.0135031h.007954c1.923409 0 3.496818 2.2561562 3.496818 5.0135031v62.9729939c0 2.757575-1.573409 5.013503-3.496818 5.013503M317.699895 349h-.007955c-1.923409 0-3.496818-2.253979-3.496818-5.009577v-87.981758c0-2.754686 1.573409-5.008665 3.496818-5.008665h.007955c1.921818 0 3.495227 2.253979 3.495227 5.008665v87.981758c0 2.755598-1.573409 5.009577-3.495227 5.009577M330.161718 335h-.006363c-1.923409 0-3.496818-2.27447-3.496818-5.05471v-58.89058c0-2.78001 1.573409-5.05471 3.496818-5.05471h.006363c1.923409 0 3.496819 2.2747 3.496819 5.05471v58.89058c0 2.78024-1.57341 5.05471-3.496819 5.05471M342.625133 325h-.006364c-1.923409 0-3.496818-2.2475-3.496818-4.994773v-40.0104543c0-2.7470454 1.573409-4.9947727 3.496818-4.9947727h.006364c1.923409 0 3.496818 2.2477273 3.496818 4.9947727v40.0104543c0 2.747273-1.573409 4.994773-3.496818 4.994773M355.088548 335h-.006364c-1.923409 0-3.496818-1.526487-3.496818-3.392536v-64.2153913c0-1.865586 1.573409-3.3920727 3.496818-3.3920727h.006364c1.923409 0 3.496818 1.5264867 3.496818 3.3920727v64.2153913c0 1.866049-1.573409 3.392536-3.496818 3.392536M367.549599 327c-1.925614 0-3.500819-1.496044-3.500819-3.324767v-46.35031c0-1.8287232 1.575205-3.324923 3.500819-3.324923 1.923977 0 3.499181 1.4961998 3.499181 3.324923v46.35031c0 1.828723-1.575204 3.324767-3.499181 3.324767M380.012195 355c-1.925164 0-3.5-1.475726-3.5-3.278197V248.2792708c0-1.8035452 1.574836-3.2792708 3.5-3.2792708s3.5 1.4757256 3.5 3.2792708V351.721803c0 1.802471-1.574836 3.278197-3.5 3.278197M392.478792 364h-.006364c-1.923409 0-3.496818-1.519183-3.496818-3.374767V239.3758427c0-1.8566597 1.573409-3.3758427 3.496818-3.3758427h.006364c1.923409 0 3.496818 1.519183 3.496818 3.3758427V360.625233c0 1.855584-1.573409 3.374767-3.496818 3.374767M404.942206 354h-.006363c-1.92341 0-3.496819-1.518414-3.496819-3.37306V250.3739811c0-1.8557203 1.573409-3.3739811 3.496819-3.3739811h.006363c1.923409 0 3.496818 1.5182608 3.496818 3.3739811V350.62694c0 1.854646-1.573409 3.37306-3.496818 3.37306M417.401643 331c-1.924005 0-3.499204-1.527559-3.499204-3.395176v-55.2093394c0-1.8674625 1.575199-3.3954846 3.499204-3.3954846 1.925597 0 3.500796 1.5280221 3.500796 3.3954846v55.2093394c0 1.867617-1.575199 3.395176-3.500796 3.395176M429.869035 327h-.006363c-1.923409 0-3.496818-1.525731-3.496818-3.390737v-47.2185259c0-1.8648514 1.573409-3.3907371 3.496818-3.3907371h.006363c1.92341 0 3.496819 1.5258857 3.496819 3.3907371v47.2185259c0 1.865006-1.573409 3.390737-3.496819 3.390737M442.33245 318h-.006364c-1.923409 0-3.496818-2.307433-3.496818-5.127967v-24.7440663c0-2.8203 1.573409-5.1279667 3.496818-5.1279667h.006364c1.923409 0 3.496818 2.3076667 3.496818 5.1279667v24.7440663c0 2.820534-1.573409 5.127967-3.496818 5.127967M454.797456 312h-.007955c-1.923409 0-3.496818-2.27447-3.496818-5.05471v-12.89058c0-2.78001 1.573409-5.05471 3.496818-5.05471h.007955c1.923409 0 3.495227 2.2747 3.495227 5.05471v12.89058c0 2.78024-1.571818 5.05471-3.495227 5.05471M467.26087 325h-.007954c-1.923409 0-3.496818-2.2475-3.496818-4.994773v-40.0104543c0-2.7470454 1.573409-4.9947727 3.496818-4.9947727h.007954c1.923409 0 3.495228 2.2477273 3.495228 4.9947727v40.0104543c0 2.747273-1.571819 4.994773-3.495228 4.994773M479.722694 349h-.006364c-1.923409 0-3.496818-2.253979-3.496818-5.009577v-87.981758c0-2.754686 1.573409-5.008665 3.496818-5.008665h.006364c1.923409 0 3.496818 2.253979 3.496818 5.008665v87.981758c0 2.755598-1.573409 5.009577-3.496818 5.009577M492.186109 323h-.006364c-1.923409 0-3.496818-2.27447-3.496818-5.05471v-35.89058c0-2.78001 1.573409-5.05471 3.496818-5.05471h.006364c1.923409 0 3.496818 2.2747 3.496818 5.05471v35.89058c0 2.78024-1.573409 5.05471-3.496818 5.05471M505.351049 327h-.409415c-2.086806 0-3.795293-2.231825-3.795293-4.95966v-44.0809053c0-2.7276101 1.708487-4.9594347 3.795293-4.9594347h.409415c2.086806 0 3.795292 2.2318246 3.795292 4.9594347V322.04034c0 2.727835-1.708486 4.95966-3.795292 4.95966M518.813556 324h-.4076c-2.088082 0-3.7962-2.244889-3.7962-4.988466v-38.0232947c0-2.743577 1.708118-4.9882393 3.7962-4.9882393h.4076c2.088083 0 3.7962 2.2446623 3.7962 4.9882393v38.0232947c0 2.743577-1.708117 4.988466-3.7962 4.988466M531.576353 343h-.006364c-1.923409 0-3.496818-2.264061-3.496818-5.031576v-76.9368477c0-2.7672868 1.573409-5.0315763 3.496818-5.0315763h.006364c1.923409 0 3.496818 2.2642895 3.496818 5.0315763v76.9368477c0 2.767515-1.573409 5.031576-3.496818 5.031576M544.039767 332h-.006363c-1.92341 0-3.496819-2.260343-3.496819-5.023314v-53.9533717c0-2.7627429 1.573409-5.0233143 3.496819-5.0233143h.006363c1.923409 0 3.496818 2.2605714 3.496818 5.0233143v53.9533717c0 2.762971-1.573409 5.023314-3.496818 5.023314M556.503182 318h-.007955C554.571818 318 553 315.692567 553 312.872033v-24.7440663C553 285.3076667 554.571818 283 556.495227 283h.007955C558.426591 283 560 285.3076667 560 288.1279667v24.7440663C560 315.692567 558.426591 318 556.503182 318M68.4304884 359h-.0073182c-1.9229318 0-3.4963409-2.266076-3.4963409-5.033942V246.0355459c0-2.76947 1.5734091-5.0355459 3.4963409-5.0355459h.0073182c1.9229318 0 3.4963409 2.2660759 3.4963409 5.0355459V353.966058c0 2.767866-1.5734091 5.033942-3.4963409 5.033942M55.9670737 338h-.0073182c-1.9229318 0-3.4963409-2.239568-3.4963409-4.976918v-67.0459379c0-2.73735 1.5734091-4.9771441 3.4963409-4.9771441h.0073182c1.9230909 0 3.4963409 2.2397941 3.4963409 4.9771441v67.0459379c0 2.73735-1.57325 4.976918-3.4963409 4.976918M43.50365909 312h-.00747727C41.57325 312 40 309.72553 40 306.94552v-12.89081C40 291.2747 41.57325 289 43.49618182 289h.00747727C45.42659091 289 47 291.2747 47 294.05471v12.89081C47 309.72553 45.42659091 312 43.50365909 312"/>
    </g>
</svg>
